# xmcd
#
# Track frame offsets: 
#        150
#        34328
#        53112
#        73470
#        126205
#        153557
#
# Disc length: 2423 seconds
#
# Revision: 0
# Processed by: cddbd v1.5.2PL0 Copyright (c) Steve Scherf et al.
# Submitted via: ExactAudioCopy v0.95a5
#
DISCID=58097506
DTITLE=The Legionnaires - Live From Playmakers-House Of Rock 20061027
DYEAR=2006
DGENRE=Country
TTITLE0=I Will
TTITLE1=An Ode To Billy Bob and Sally Mae Joe
TTITLE2=Drinkin' And Whorin'
TTITLE3=Roll Ya Up
TTITLE4=Drive
TTITLE5=Cake On The Lake
EXTD=
EXTT0=
EXTT1=
EXTT2=
EXTT3=
EXTT4=
EXTT5=
PLAYORDER=
